<svg width="21" height="21" viewBox="0 0 21 21" fill="none" xmlns="http://www.w3.org/2000/svg">
<path d="M17.1615 1.56464L17.1616 1.56464C17.5206 1.46205 17.8049 1.38116 18.0312 1.3349C18.261 1.28792 18.4674 1.2681 18.6565 1.31709L18.7817 0.83403L18.6565 1.31709C19.0959 1.43096 19.4391 1.77413 19.553 2.21357C19.602 2.40264 19.5821 2.60903 19.5352 2.83887C19.4889 3.06521 19.408 3.34948 19.3054 3.7085L19.3054 3.70852L15.3328 17.6126L15.8136 17.7499L15.3328 17.6126C15.2039 18.0638 15.1027 18.417 15.0055 18.6808C14.9087 18.9433 14.8007 19.1637 14.6345 19.3066C14.2557 19.6322 13.7194 19.7011 13.2707 19.4817C13.0738 19.3855 12.9136 19.1995 12.7537 18.97C12.593 18.7393 12.4057 18.4231 12.167 18.0191L11.7366 18.2734L12.167 18.019L9.26276 13.1041C9.06534 12.7701 8.97635 12.6203 8.87222 12.486L8.49323 12.7798L8.87222 12.486C8.73065 12.3034 8.56665 12.1394 8.38409 11.9979L8.38408 11.9978C8.24979 11.8937 8.1 11.8047 7.76592 11.6073L2.85104 8.70306L2.85103 8.70306C2.44696 8.4643 2.1308 8.27711 1.9001 8.1164L1.6564 8.46621L1.9001 8.11639C1.67058 7.9565 1.4846 7.79624 1.38838 7.59941L0.939183 7.819L1.38838 7.59941C1.16899 7.15064 1.23786 6.61433 1.56351 6.23554C1.70634 6.0694 1.92677 5.96133 2.18923 5.86461C2.45306 5.76739 2.80626 5.66614 3.25756 5.53721L3.25757 5.53721L17.1615 1.56464ZM18.567 1.81136C18.5169 1.79569 18.4646 1.788 18.4121 1.78858C18.3602 1.78915 18.2748 1.79545 18.1313 1.82477C17.9221 1.86754 17.6509 1.94484 17.2715 2.05323L3.42368 6.00976C2.95113 6.14477 2.61012 6.24238 2.36212 6.33377C2.18574 6.39876 2.09832 6.4467 2.05549 6.47201C1.99741 6.50633 1.94687 6.55206 1.90692 6.60644C1.75394 6.81467 1.71895 7.08718 1.81436 7.3273C1.83927 7.39001 1.87661 7.44702 1.92414 7.49491C1.95918 7.53021 2.03166 7.59868 2.1859 7.70613C2.40277 7.85722 2.70806 8.03781 3.13117 8.28782L8.05825 11.1993L8.05832 11.1993C8.23985 11.3065 8.37487 11.3864 8.49242 11.463C8.69045 11.592 8.95177 11.5647 9.11889 11.3976L12.5511 7.96537C12.6487 7.86774 12.807 7.86774 12.9047 7.96537C13.0023 8.06301 13.0023 8.2213 12.9047 8.31893L9.47245 11.7512C9.30532 11.9183 9.27805 12.1796 9.40706 12.3776C9.48364 12.4952 9.56351 12.6302 9.67075 12.8117L9.67079 12.8118L12.5822 17.7389C12.8323 18.162 13.0128 18.4673 13.1639 18.6842C13.2714 18.8384 13.3399 18.9109 13.3752 18.9459C13.4231 18.9935 13.4801 19.0308 13.5428 19.0557C13.7829 19.1511 14.0554 19.1161 14.2636 18.9632C14.318 18.9232 14.3638 18.8726 14.3981 18.8145C14.4234 18.7717 14.4713 18.6843 14.5363 18.5079C14.6277 18.2599 14.7253 17.9189 14.8603 17.4464L18.8168 3.59854C18.9252 3.21917 19.0025 2.94801 19.0453 2.73875L18.5554 2.63861L19.0453 2.73874C19.0746 2.59531 19.0809 2.50982 19.0815 2.45791C19.0821 2.40543 19.0744 2.35318 19.0587 2.30309C18.9853 2.06853 18.8015 1.88477 18.567 1.81136Z" fill="#FEF4F4" stroke="#FEF4F4" stroke-linecap="round" stroke-linejoin="round"/>
</svg>
