<svg width="66" height="59" viewBox="0 0 66 59" fill="none" xmlns="http://www.w3.org/2000/svg">
<path d="M56.1588 23.3485C54.543 19.5537 52.0203 16.2136 48.8123 13.6213C45.6043 11.029 41.8089 9.26392 37.7595 8.48087L41.4175 2.62808L37.7075 0.309326L32.8807 8.0323C27.9639 8.05511 23.1616 9.51787 19.0671 12.2399C14.9725 14.9618 11.7651 18.8238 9.84122 23.3485C7.26415 23.3975 4.80917 24.4556 3.00398 26.2954C1.19878 28.1353 0.1875 30.6099 0.1875 33.1875C0.1875 35.765 1.19878 38.2396 3.00398 40.0795C4.80917 41.9193 7.26415 42.9774 9.84122 43.0264C11.7733 47.5697 14.9991 51.4444 19.117 54.168C23.2349 56.8915 28.0629 58.3437 33 58.3437C37.9371 58.3437 42.7651 56.8915 46.883 54.168C51.0009 51.4444 54.2267 47.5697 56.1588 43.0264C58.7359 42.9774 61.1909 41.9193 62.996 40.0795C64.8012 38.2396 65.8125 35.765 65.8125 33.1875C65.8125 30.6099 64.8012 28.1353 62.996 26.2954C61.1909 24.4556 58.7359 23.3975 56.1588 23.3485ZM59.871 37.0169C58.8704 38.0403 57.5067 38.6279 56.0757 38.6522L53.2422 38.7061L52.133 41.3139C50.537 45.0677 47.8721 48.2691 44.47 50.5195C41.068 52.7699 37.0791 53.9698 33.0001 53.9698C28.9211 53.9698 24.9322 52.7699 21.5301 50.5195C18.128 48.2691 15.4631 45.0677 13.8672 41.3139L12.7578 38.7061L9.92435 38.6522C8.4927 38.6254 7.12875 38.0379 6.12577 37.016C5.12278 35.9941 4.56088 34.6193 4.56088 33.1875C4.56088 31.7556 5.12278 30.3808 6.12577 29.3589C7.12875 28.337 8.4927 27.7495 9.92435 27.7227L12.7578 27.6688L13.8672 25.061C15.4632 21.3072 18.1281 18.1059 21.5302 15.8555C24.9322 13.6052 28.9211 12.4053 33.0001 12.4053C37.0791 12.4053 41.0679 13.6052 44.47 15.8555C47.872 18.1059 50.537 21.3072 52.133 25.061L53.2422 27.6688L56.0757 27.7227C57.1435 27.7428 58.182 28.0754 59.0628 28.6794C59.9437 29.2833 60.6283 30.1321 61.032 31.1208C61.4357 32.1095 61.541 33.1949 61.3346 34.2428C61.1283 35.2906 60.6194 36.2551 59.871 37.0169Z" fill="#FEF4F4"/>
</svg>
